#N canvas 332 237 771 415 12;
#X obj 49 154 biquad~ 0.83774 -0.06338 0.06338 -0.83774 1;
#X obj 60 124 biquad~ 1.94632 -0.94657 0.94657 -1.94632 1;
#X obj 48 71 biquad~ -0.02569 0.260502 -0.260502 0.02569 1;
#X obj 48 97 biquad~ 1.8685 -0.870686 0.870686 -1.8685 1;
#X obj 31 46 inlet~;
#X obj 69 244 cos~;
#X obj 157 223 +~ -0.25;
#X obj 157 245 cos~;
#X obj 51 266 *~;
#X obj 139 267 *~;
#X obj 51 312 -~;
#X obj 51 345 outlet~;
#X obj 121 346 outlet~;
#X obj 121 313 +~;
#X obj 157 201 phasor~;
#X obj 710 47 inlet~;
#X obj 386 149 biquad~ 0.83774 -0.06338 0.06338 -0.83774 1;
#X obj 397 119 biquad~ 1.94632 -0.94657 0.94657 -1.94632 1;
#X obj 385 66 biquad~ -0.02569 0.260502 -0.260502 0.02569 1;
#X obj 385 92 biquad~ 1.8685 -0.870686 0.870686 -1.8685 1;
#X obj 368 41 inlet~;
#X obj 406 239 cos~;
#X obj 494 218 +~ -0.25;
#X obj 494 240 cos~;
#X obj 388 261 *~;
#X obj 476 262 *~;
#X obj 388 307 -~;
#X obj 388 340 outlet~;
#X obj 458 341 outlet~;
#X obj 458 308 +~;
#X obj 494 196 phasor~;
#X connect 0 0 9 0;
#X connect 1 0 0 0;
#X connect 2 0 3 0;
#X connect 3 0 8 0;
#X connect 4 0 1 0;
#X connect 4 0 2 0;
#X connect 5 0 8 1;
#X connect 6 0 7 0;
#X connect 7 0 9 1;
#X connect 8 0 10 0;
#X connect 8 0 13 0;
#X connect 9 0 10 1;
#X connect 9 0 13 1;
#X connect 10 0 11 0;
#X connect 13 0 12 0;
#X connect 14 0 6 0;
#X connect 14 0 5 0;
#X connect 15 0 14 0;
#X connect 15 0 30 0;
#X connect 16 0 25 0;
#X connect 17 0 16 0;
#X connect 18 0 19 0;
#X connect 19 0 24 0;
#X connect 20 0 17 0;
#X connect 20 0 18 0;
#X connect 21 0 24 1;
#X connect 22 0 23 0;
#X connect 23 0 25 1;
#X connect 24 0 26 0;
#X connect 24 0 29 0;
#X connect 25 0 26 1;
#X connect 25 0 29 1;
#X connect 26 0 27 0;
#X connect 29 0 28 0;
#X connect 30 0 22 0;
#X connect 30 0 21 0;
